<svg width="982" height="1009" xmlns="http://www.w3.org/2000/svg" xmlns:xlink="http://www.w3.org/1999/xlink" xml:space="preserve" overflow="hidden"><defs><clipPath id="clip0"><path d="M2239.16 1202C2261.86 1202 2280.85 1205.23 2296.12 1211.68 2311.4 1218.13 2322.96 1227.66 2330.81 1240.28 2338.65 1252.9 2342.58 1268.89 2342.58 1288.24 2342.58 1307.02 2338.65 1322.52 2330.81 1334.72 2322.96 1346.92 2311.54 1356.03 2296.54 1362.06 2281.55 1368.09 2262.56 1371.1 2239.58 1371.1L2163.48 1371.1 2163.48 1202.01ZM2015.22 867.59 2020.27 867.59C2020.32 940.362 2020.38 1013.13 2020.43 1085.9L1872.21 1085.9ZM1973.88 717 1561 1326.09 1714.87 1326.09 1800.29 1195.69 2020.52 1195.69C2020.53 1362.13 2020.54 1528.56 2020.55 1695L2163.48 1695 2163.48 1485.1 2242.95 1485.1 2354.35 1695 2512 1695 2384.95 1462.23 2385.67 1461.96C2419.72 1446.54 2445.79 1423.96 2463.86 1394.24 2481.94 1364.51 2490.98 1329.18 2490.98 1288.24 2490.98 1247.01 2482.08 1211.19 2464.28 1180.76 2446.49 1150.34 2420.98 1126.92 2387.77 1110.51 2354.56 1094.11 2315.11 1085.91 2269.43 1085.91L2163.48 1085.91C2163.48 962.938 2163.48 839.969 2163.48 717ZM1554 710 2536 710 2536 1719 1554 1719Z" fill-rule="evenodd" clip-rule="evenodd"/></clipPath></defs><g transform="translate(-1554 -710)"><g clip-path="url(#clip0)"><path d="M2255.36 1218.21 2179.69 1218.21 2179.69 1387.31 2255.78 1387.31C2278.76 1387.31 2297.75 1384.29 2312.75 1378.26 2327.74 1372.23 2339.16 1363.12 2347.01 1350.92 2354.86 1338.72 2358.78 1323.23 2358.78 1304.44 2358.78 1285.09 2354.86 1269.11 2347.01 1256.49 2339.16 1243.87 2327.6 1234.33 2312.33 1227.88 2297.05 1221.43 2278.06 1218.21 2255.36 1218.21ZM2031.43 883.794 1888.42 1102.11 2036.64 1102.11C2036.58 1029.34 2036.53 956.566 2036.47 883.794L2031.43 883.794ZM1990.08 733.205 2179.69 733.205C2179.69 856.174 2179.69 979.142 2179.69 1102.11L2285.63 1102.11C2331.31 1102.11 2370.76 1110.31 2403.97 1126.72 2437.19 1143.12 2462.69 1166.54 2480.49 1196.97 2498.29 1227.39 2507.19 1263.22 2507.19 1304.44 2507.19 1345.38 2498.15 1380.72 2480.07 1410.44 2461.99 1440.17 2435.93 1462.74 2401.87 1478.17L2401.15 1478.44 2528.2 1711.2 2370.55 1711.2 2259.15 1501.3 2179.69 1501.3 2179.69 1711.2 2036.75 1711.2C2036.74 1544.77 2036.73 1378.33 2036.72 1211.9L1816.5 1211.9 1731.07 1342.29 1577.2 1342.29 1990.08 733.205Z" fill-rule="evenodd"/><path d="M2255.11 1225.08 2186.56 1225.08 2186.56 1380.43 2255.78 1380.43 2272.03 1379.87 2286.49 1378.21 2299.34 1375.49 2310.59 1371.73 2319.87 1367.2 2328.25 1361.52 2335.34 1354.87 2341.2 1347.2 2345.82 1338.44 2349.16 1328.44 2351.28 1316.69 2351.92 1304.07 2351.18 1290.92 2349.07 1279.12 2345.8 1269.24 2341.15 1260.12 2335.24 1252.15 2328.06 1245.19 2319.55 1239.21 2309.23 1234.02 2297.91 1230.14 2285.13 1227.34 2270.86 1225.64ZM2179.69 1211.34 2255.62 1211.34 2272.52 1211.99 2288.13 1213.92 2302.43 1217.16 2315.42 1221.74 2326.18 1227.16C2326.47 1227.31 2326.76 1227.48 2327.03 1227.67L2336.4 1234.24C2336.7 1234.45 2336.98 1234.68 2337.24 1234.94L2345.21 1242.66C2345.48 1242.93 2345.73 1243.21 2345.95 1243.51L2352.53 1252.4C2352.76 1252.7 2352.96 1253.02 2353.13 1253.36L2358.28 1263.46C2358.45 1263.78 2358.59 1264.12 2358.7 1264.46L2362.61 1276.76 2364.91 1290.2 2365.65 1304.82 2364.81 1319.13 2362.6 1331.37C2362.54 1331.7 2362.46 1332.02 2362.36 1332.33L2358.68 1343.33C2358.56 1343.69 2358.41 1344.03 2358.24 1344.36L2353.09 1354.13C2352.91 1354.47 2352.7 1354.79 2352.47 1355.1L2345.92 1363.67C2345.69 1363.97 2345.43 1364.25 2345.16 1364.5L2337.26 1371.92C2337 1372.17 2336.72 1372.39 2336.41 1372.6L2327.18 1378.86C2326.9 1379.04 2326.61 1379.21 2326.31 1379.36L2314.9 1384.79 2302.16 1388.95 2288.03 1391.88 2272.5 1393.61 2255.78 1394.18 2179.69 1394.18C2175.89 1394.18 2172.81 1391.1 2172.81 1387.31L2172.81 1218.21C2172.81 1214.41 2175.89 1211.34 2179.69 1211.34ZM2029.61 899.116 1901.14 1095.23 2029.76 1095.23ZM2031.43 876.919 2036.47 876.919C2040.27 876.919 2043.35 879.994 2043.35 883.789L2043.51 1102.1C2043.52 1105.9 2040.44 1108.98 2036.64 1108.98L1888.42 1108.98C1885.89 1108.98 1883.57 1107.6 1882.37 1105.38 1881.17 1103.15 1881.28 1100.45 1882.66 1098.34L2025.68 880.027C2026.95 878.088 2029.11 876.919 2031.43 876.919ZM1993.73 740.08 1590.17 1335.42 1727.36 1335.42 1810.75 1208.13C1812.02 1206.19 1814.18 1205.02 1816.5 1205.02L2036.72 1205.02C2040.52 1205.02 2043.59 1208.1 2043.59 1211.9L2043.63 1704.33 2172.81 1704.33 2172.81 1501.3C2172.81 1497.5 2175.89 1494.43 2179.69 1494.43L2259.15 1494.43C2261.7 1494.43 2264.03 1495.83 2265.23 1498.08L2374.69 1704.33 2516.62 1704.33 2395.12 1481.73C2394.17 1479.99 2394.02 1477.92 2394.71 1476.05 2395.4 1474.19 2396.86 1472.71 2398.72 1472.01L2398.83 1472 2410.81 1466.11 2422.03 1459.58 2432.51 1452.43 2442.26 1444.65 2451.29 1436.23 2459.59 1427.17 2467.18 1417.46 2474.06 1407.1 2480.18 1396.15 2485.49 1384.69 2490 1372.7 2493.69 1360.17 2496.57 1347.11 2498.64 1333.5 2499.89 1319.34 2500.31 1304.63 2499.92 1289.82 2498.71 1275.53 2496.71 1261.78 2493.9 1248.54 2490.29 1235.81 2485.89 1223.6 2480.69 1211.88 2474.68 1200.65 2467.94 1189.99 2460.5 1179.97 2452.38 1170.58 2443.55 1161.82 2434.03 1153.68 2423.78 1146.16 2412.82 1139.26 2401.14 1132.98 2388.81 1127.39 2375.9 1122.53 2362.38 1118.41 2348.27 1115.03 2333.56 1112.4 2318.24 1110.51 2302.31 1109.37 2285.63 1108.99 2179.69 1108.99C2175.89 1108.99 2172.81 1105.91 2172.81 1102.11L2172.81 740.08ZM1990.08 726.33 2179.69 726.33C2183.48 726.33 2186.56 729.408 2186.56 733.205L2186.56 1095.24 2285.63 1095.24 2302.63 1095.62 2319.21 1096.79 2335.23 1098.75 2350.69 1101.5 2365.58 1105.04 2379.9 1109.38 2393.64 1114.51 2406.81 1120.46 2419.31 1127.14 2431.09 1134.51 2442.15 1142.59 2452.47 1151.35 2462.05 1160.81 2470.89 1170.95 2478.97 1181.78 2486.29 1193.28 2492.8 1205.38 2498.45 1218 2503.22 1231.13 2507.12 1244.77 2510.15 1258.91 2512.32 1273.54 2513.62 1288.65 2514.06 1304.25 2513.63 1319.72 2512.34 1334.69 2510.17 1349.16 2507.12 1363.12 2503.19 1376.57 2498.37 1389.51 2492.67 1401.91 2486.07 1413.79 2478.65 1425.05 2470.44 1435.62 2461.44 1445.5 2451.66 1454.69 2441.11 1463.16 2429.8 1470.93 2417.73 1477.99 2410.65 1481.49 2534.24 1707.91C2535.4 1710.04 2535.36 1712.62 2534.12 1714.71 2532.88 1716.8 2530.63 1718.08 2528.2 1718.08L2370.55 1718.08C2368.01 1718.08 2365.67 1716.67 2364.48 1714.42L2255.02 1508.18 2186.56 1508.18 2186.56 1711.2C2186.56 1715 2183.49 1718.08 2179.69 1718.08L2036.75 1718.08C2032.95 1718.08 2029.88 1715 2029.88 1711.21L2029.85 1218.77 1820.21 1218.77 1736.82 1346.06C1735.55 1348 1733.39 1349.17 1731.07 1349.17L1577.2 1349.17C1574.66 1349.17 1572.32 1347.76 1571.13 1345.52 1569.94 1343.27 1570.09 1340.54 1571.51 1338.44L1984.39 729.347C1985.67 727.46 1987.8 726.33 1990.08 726.33Z" fill-rule="evenodd"/></g><path d="M2239.16 1202 2163.48 1202.01 2163.48 1371.1 2239.58 1371.1C2262.56 1371.1 2281.55 1368.09 2296.54 1362.06 2311.54 1356.03 2322.96 1346.92 2330.81 1334.72 2338.65 1322.52 2342.58 1307.02 2342.58 1288.24 2342.58 1268.89 2338.65 1252.9 2330.81 1240.28 2322.96 1227.66 2311.4 1218.13 2296.12 1211.68 2280.85 1205.23 2261.86 1202 2239.16 1202ZM2015.22 867.59 1872.21 1085.9 2020.43 1085.9C2020.38 1013.13 2020.32 940.362 2020.27 867.59L2015.22 867.59ZM1973.88 717 2163.48 717C2163.48 839.969 2163.48 962.938 2163.48 1085.91L2269.43 1085.91C2315.11 1085.91 2354.56 1094.11 2387.77 1110.51 2420.98 1126.92 2446.49 1150.34 2464.28 1180.76 2482.08 1211.19 2490.98 1247.01 2490.98 1288.24 2490.98 1329.18 2481.94 1364.51 2463.86 1394.24 2445.79 1423.96 2419.72 1446.54 2385.67 1461.96L2384.95 1462.23 2512 1695 2354.35 1695 2242.95 1485.1 2163.48 1485.1 2163.48 1695 2020.55 1695C2020.54 1528.56 2020.53 1362.13 2020.52 1195.69L1800.29 1195.69 1714.87 1326.09 1561 1326.09 1973.88 717Z" stroke="#000000" stroke-width="13.75" stroke-linecap="round" stroke-linejoin="round" stroke-miterlimit="10" fill="#FFFFFF" fill-rule="evenodd"/></g></svg>