<?xml version="1.0" encoding="UTF-8"?>
<svg id="_레이어_2" data-name="레이어 2" xmlns="http://www.w3.org/2000/svg" viewBox="0 0 3035.92 2017.45">
  <g id="_레이어_1-2" data-name="레이어 1">
    <g>
      <g>
        <path d="M933.24,0h123.09l610.78,1614.46c18.91,50.52,37.46,82.49,55.6,95.88,18.14,13.39,49.35,20.12,93.54,20.12h23.67c6.29,0,12.62-.4,18.91-1.17,6.29-.8,13.42-1.17,21.33-1.17v146.76h-745.68v-146.76h106.52c56.81,0,93.1-3.18,108.9-9.47,15.77-6.29,23.67-20.52,23.67-42.62,0-9.44-1.98-21.69-5.93-36.69-3.95-15-9.88-31.97-17.74-50.92l-108.9-300.61h-617.87l-66.28,179.9c-11.05,26.85-19.35,53.66-24.87,80.48-5.52,26.85-8.27,49.71-8.27,68.66,0,37.9,12.22,65.92,36.69,84.06,24.44,18.11,62.73,27.22,114.82,27.22h78.13v146.76H104.7v-146.76h35.48c61.53,0,107.29-12.62,137.28-37.86,30-25.24,61.56-79.71,94.71-163.37L933.24,0ZM670.45,1131.53h520.83l-265.13-672.3-255.69,672.3Z"/>
        <path d="M2379.62,1659.45c0,36.29,3.15,58.75,9.47,67.45,6.29,8.67,24.44,13.79,54.43,15.4l160.99,4.72v127.85h-660.45v-127.85l130.19-4.72c28.39-1.61,45.76-6.73,52.09-15.4,6.29-8.71,9.47-31.17,9.47-67.45v-752.82c0-39.43-5.93-63.87-17.78-73.34-11.85-9.47-47.74-14.23-107.69-14.23h-87.61v-120.75l442.69-30.76v272.23c37.86-93.1,84.79-163.33,140.83-210.66,56.04-47.33,119.54-71.04,190.58-71.04,66.28,0,121.88,22.9,166.88,68.66,44.99,45.8,67.49,98.66,67.49,158.61,0,47.33-14.63,86.4-43.82,117.17-29.19,30.8-66.69,46.16-112.41,46.16s-80.51-14.6-108.9-43.79c-28.42-29.19-42.62-65.08-42.62-107.69,0-17.34,2.34-33.91,7.1-49.71,4.72-15.8,11.82-30.8,21.29-44.99-52.09,6.33-95.88,30.8-131.36,73.38-35.52,42.62-63.54,93.9-84.06,153.89-20.52,58.38-35.12,121.12-43.79,188.2-8.71,67.09-13.02,126.64-13.02,178.69v262.79Z"/>
      </g>
      <rect y="1960.42" width="3035.92" height="57.03"/>
    </g>
  </g>
</svg>